<?xml version="1.0" encoding="UTF-8"?><svg id="Layer_2" xmlns="http://www.w3.org/2000/svg" viewBox="0 0 180 35.43"><g id="Layer_1-2"><path d="m84.29,20.77c0,3.06,0,5.83,0,8.6,0,.89-.17,1.73-.99,2.22-1.12.66-2.61-.03-2.9-1.31-.08-.37-.1-.76-.1-1.14,0-6.81,0-13.63,0-20.44,0-.26,0-.51.01-.77.1-1.49.73-2.19,1.96-2.18,1.23.01,1.94.7,1.99,2.16.07,2.04.02,4.09.03,6.13,0,.67,0,1.35,0,2.01.52.14.67-.25.89-.46,3.14-2.88,6.26-5.76,9.38-8.65.54-.5,1.09-.99,1.82-1.14.79-.16,1.55-.09,2.04.69.5.79.22,1.5-.37,2.07-1.29,1.24-2.62,2.43-3.93,3.64-2,1.85-3.99,3.72-6.03,5.52-.65.57-.61.89,0,1.45,3.38,3.05,6.73,6.15,10.08,9.22,1.12,1.02,1.38,2.09.69,2.86-.74.83-2.13.75-3.21-.23-3.44-3.12-6.87-6.24-10.31-9.36-.27-.25-.57-.47-1.07-.89Z" style="fill:#fff; stroke-width:0px;"/><path d="m33.44,20.99c0,2.27.01,4.51,0,6.74,0,.85.09,1.7-.13,2.54-.27,1.05-.91,1.64-2.03,1.51-1.12-.12-1.81-.73-1.82-1.91-.02-2.72-.02-5.45-.02-8.17,0-4.55,0-9.11,0-13.66,0-1.01.22-1.88,1.31-2.23,1.16-.37,2.24.22,2.52,1.46.39,1.72.11,3.47.17,5.21.04,1.19,0,2.37,0,3.56.55.12.74-.31.99-.53,2.97-2.74,5.92-5.5,8.89-8.25.5-.46,1.03-.91,1.62-1.23.9-.49,1.85-.51,2.53.37.71.92.19,1.69-.5,2.34-3.18,2.95-6.35,5.92-9.57,8.82-.75.68-.8,1.03-.02,1.72,3.21,2.86,6.35,5.8,9.51,8.71.09.09.19.17.28.26,1.35,1.27,1.6,2.21.82,3.02-.82.85-2.17.7-3.41-.43-3.37-3.06-6.72-6.14-10.09-9.21-.27-.24-.48-.59-1.06-.65Z" style="fill:#fff; stroke-width:0px;"/><path d="m75.63,18.78c0,3.62.02,7.23-.01,10.85-.01,1.5-.68,2.19-1.93,2.16-.64-.01-1.29-.22-1.5-.8-.37-1.02-.74-.87-1.51-.36-4.24,2.77-9.74.92-11.54-3.92-1.11-2.99-1.01-6.04.28-8.95,1.9-4.27,7.04-5.78,11.14-3.36.31.18.59.69.97.47.41-.24.18-.77.18-1.17.02-1.66,0-3.32.02-4.98,0-.42.03-.85.09-1.27.18-1.12.81-1.77,2-1.69,1.18.08,1.75.76,1.78,1.92,0,.13.02.25.02.38,0,3.57,0,7.15,0,10.72Zm-8.75-2.12c-1.69-.07-2.99.77-3.75,2.38-1.11,2.32-1.05,4.71-.04,7.02.75,1.7,2.17,2.53,4.09,2.48,1.85-.05,3.16-.85,3.94-2.52.87-1.86.86-3.78.43-5.73-.51-2.35-2.13-3.64-4.67-3.63Z" style="fill:#fff; stroke-width:0px;"/><path d="m146.39,18.83c0,3.66.03,7.32-.02,10.97-.02,1.55-1.1,2.31-2.46,1.9-.43-.13-.87-.36-.99-.74-.32-1.1-.75-.82-1.47-.33-4.62,3.12-11.05.23-12-5.36-.37-2.21-.37-4.4.35-6.55,1.68-5.03,7.21-7.02,11.71-4.21.27.17.5.61.85.33.16-.13.12-.55.12-.83,0-1.66,0-3.32,0-4.98,0-.38,0-.77.04-1.15.16-1.51.79-2.18,1.99-2.14,1.22.04,1.85.75,1.86,2.25.03,3.61,0,7.23,0,10.84,0,0-.01,0-.02,0Zm-3.8,4.11c.03-1.24-.12-2.17-.36-3.07-.49-1.84-1.82-2.96-3.72-3.19-2.05-.25-3.6.45-4.5,2.16-1.23,2.33-1.18,4.76-.18,7.13.72,1.71,2.1,2.59,4.04,2.56,1.9-.02,3.24-.82,4.06-2.54.51-1.07.61-2.2.66-3.05Z" style="fill:#fff; stroke-width:0px;"/><path d="m159.33,23.71c-1.62,0-3.25.03-4.87-.01-.87-.02-.99.26-.77,1.06.86,3.06,3.58,4.48,6.97,3.61,1-.26,1.91-.7,2.83-1.16.87-.44,1.7-.4,2.24.48.52.86.27,1.73-.52,2.25-3.29,2.15-6.86,2.62-10.5,1.13-3.34-1.37-4.84-4.16-5.02-7.67-.23-4.39,1.55-7.77,4.95-9.31,5.09-2.3,11.62.2,11.67,7.79,0,1.14-.59,1.77-1.72,1.79-1.75.04-3.5,0-5.25,0,0,0,0,.02,0,.03Zm-1.26-2.89c1.19,0,2.39-.05,3.58.02.95.05,1.22-.21.91-1.16-.73-2.28-2.12-3.3-4.55-3.2-2.15.09-3.82,1.56-4.31,3.69-.14.59.06.66.54.66,1.28,0,2.56,0,3.84,0Z" style="fill:#fff; stroke-width:0px;"/><path d="m110.4,22.53c0-2.34.01-4.68,0-7.03,0-.99.27-1.82,1.31-2.06,1.05-.24,2,.02,2.35,1.19.25.83.54.34.87.12,2.53-1.74,5.23-2.01,8-.74,2.48,1.14,3.06,3.45,3.15,5.85.12,3.23.07,6.47.03,9.71-.02,1.41-.81,2.24-1.94,2.23-1.23,0-1.91-.81-1.92-2.34-.02-2.64,0-5.28-.01-7.92,0-.47-.03-.94-.07-1.4-.25-2.4-.94-3.29-2.66-3.44-2.49-.22-4.32.84-4.94,2.9-.19.65-.3,1.32-.3,2.01.02,2.68.04,5.37-.01,8.05-.03,1.66-1.16,2.48-2.62,2.02-.94-.29-1.22-.99-1.22-1.87,0-2.43,0-4.85,0-7.28,0,0,0,0-.01,0Z" style="fill:#fff; stroke-width:0px;"/><path d="m169.4,22.63c0-2.43.01-4.85,0-7.27,0-.96.31-1.72,1.3-1.92.99-.21,1.94-.02,2.3,1.08.3.93.71.32,1,.11,1.22-.89,2.59-1.27,4.06-1.36,1.03-.06,1.75.31,1.92,1.41.17,1.13-.36,1.83-1.56,2.08-.54.11-1.1.17-1.64.3-2.39.58-3.45,1.9-3.47,4.34-.02,2.55,0,5.11,0,7.66,0,.38.02.77-.06,1.14-.22,1.08-1.04,1.69-2.13,1.58-1.11-.11-1.69-.75-1.69-1.86-.01-2.43,0-4.85,0-7.28h0Z" style="fill:#fff; stroke-width:0px;"/><path d="m55.3,22.49c0,2.26.02,4.51-.01,6.77-.01.94-.11,1.91-1.19,2.33-1.36.53-2.64-.26-2.66-1.79-.06-4.81-.02-9.62-.01-14.43,0-1.19.66-1.82,1.81-1.89,1.19-.07,2,.67,2.03,1.98.06,2.34.02,4.68.02,7.02,0,0,.01,0,.02,0Z" style="fill:#fff; stroke-width:0px;"/><path d="m102.25,22.63c0-2.26,0-4.51,0-6.77,0-1.6.62-2.36,1.87-2.4,1.24-.04,2,.85,2,2.41,0,4.51.02,9.02-.01,13.53-.01,1.68-.6,2.32-1.92,2.26-1.29-.05-1.92-.67-1.93-2.02-.02-2.34,0-4.68,0-7.02,0,0,0,0,0,0Z" style="fill:#fff; stroke-width:0px;"/><path d="m104.2,10.61c-1.46,0-2.4-.86-2.41-2.22,0-1.44.93-2.3,2.49-2.28,1.37.01,2.26.89,2.27,2.22.01,1.37-.92,2.28-2.35,2.28Z" style="fill:#fff; stroke-width:0px;"/><path d="m55.63,8.43c-.03,1.42-.91,2.22-2.4,2.19-1.46-.03-2.3-.9-2.27-2.33.03-1.39.95-2.21,2.43-2.18,1.48.03,2.28.86,2.25,2.33Z" style="fill:#fff; stroke-width:0px;"/><path d="m11.97,28.68s0,.06,0,.1v-.03s0-.02,0-.07Z" style="fill:#fff; stroke-width:0px;"/><path d="m20.11,14.46c.4-.58.69-1.28.83-2.14.1-.57,0-1.79-.44-3.16,1.31-.92,2.16-2.41,2.16-4.1,0-2.79-2.33-5.06-5.21-5.06-2.07,0-3.85,1.17-4.69,2.87-.09,0-.18,0-.27,0-.02,0-.05,0-.07,0-.84-1.69-2.62-2.86-4.69-2.86C4.85,0,2.52,2.27,2.52,5.06c0,1.61.78,3.04,1.99,3.97-.46,1.42-.57,2.7-.48,3.29.15.89.46,1.62.89,2.22C4.02,14.97-.15,17.39,0,24.81c.03,1.3.56,2.56,1.52,3.44.18.17.38.32.57.43l.12.05v3.79c0,1.6,1.3,2.9,2.9,2.9h14.78c1.6,0,2.9-1.3,2.9-2.9v-3.72l.3-.11c.2-.11.39-.26.57-.43.96-.88,1.5-2.14,1.52-3.44.17-8.25-4.98-10.31-5.09-10.36Zm-2.08,11.36l-.02-.11c-.95-4.6-3.65-4.96-5.5-4.97-1.85,0-4.56.46-5.52,4.95v.13h-1.12v-.11s-.61-6.93,2.49-8.97c2.09.56,4.12.31,4.12.31,0,0,2.14.26,4.28-.36,3.18,1.99,2.57,9.01,2.57,9.01v.11h-1.31Zm-4.34,8.13h-2.36c.24-.42.37-.9.37-1.42v-3.81c0-1.51-1.16-2.76-2.64-2.89v-.13s0-3.06,3.67-3.06c3.02,0,3.47,2.35,3.54,3.18h-.05c-1.6,0-2.9,1.3-2.9,2.9v3.81c0,.52.14,1,.37,1.42Zm-4.04-.55c.21-.2.38-.45.49-.73l.11-.43c0-.06.02-.13.02-.2-.03.53-.26,1.01-.62,1.36Zm.31-19.09c-.09-.58.37-3.12,2.53-3.12s2.61,2.54,2.53,3.12c-.16,1.04-.93,1.4-1.58,1.52-.57.03-.94.01-.94.01,0,0-.37.02-.94-.01-.65-.12-1.43-.48-1.58-1.52Zm7.95-10.29c.22,0,.4.18.4.39,0,.14-.07.26-.18.33-.06-.21-.23-.48-.59-.5.07-.13.2-.22.36-.22Zm1.18,7.79c-.24,1.46-1.05,2.39-2.01,2.98.06-1.26-.83-5.52-4.6-5.52s-4.65,4.26-4.6,5.52c-.97-.6-1.77-1.53-2.01-2.99-.23-1.37.96-7.4,6.61-7.4s6.84,6.03,6.61,7.4ZM7.11,4.02c.16,0,.3.09.36.22-.36.02-.53.29-.59.5-.11-.07-.18-.19-.18-.33,0-.22.18-.39.4-.39ZM2.08,23.24s.11-4.96,3.28-6.13c.05-.02.1.04.07.08-.34.51-1.42,2.38-1.42,6.05h-1.93Zm1.93,2.11c0,.51-.42.93-.93.93s-.93-.42-.93-.93h1.86Zm-.11,3.95c0-1.11.9-2.01,2.01-2.01h2.37c1.11,0,2.01.9,2.01,2.01v2.63s0,.07,0,.1c-.04-.5-.35-2.73-3.19-2.73-2.62,0-3.09,2.13-3.18,2.9-.01-.09-.02-.18-.02-.27v-2.63Zm5.75,4.1c-.07.06-.14.12-.21.17.08-.05.15-.11.21-.17Zm-5.73-1.2c.07.49.31.91.65,1.23-.35-.31-.59-.74-.65-1.23Zm.93,1.43c-.09-.06-.18-.12-.26-.19.08.07.17.13.26.19Zm.03.02c.09.05.19.1.29.14-.1-.04-.19-.09-.29-.14Zm.67.25c.11.02.23.03.35.03-.12,0-.24-.01-.35-.03Zm-.35-.09c.1.04.21.07.31.09-.11-.02-.21-.05-.31-.09Zm1.34.13h-.44v-1.97c0-.37.3-.68.68-.68h.62c.37,0,.68.3.68.68v1.97h-1.53Zm2.01-.02c-.09.01-.18.02-.28.02.1,0,.19,0,.28-.02Zm.86-.34c-.07.05-.15.1-.24.14.08-.04.16-.09.24-.14Zm-.28.16c-.08.04-.16.07-.24.1.08-.03.16-.06.24-.1Zm-.26.1c-.09.03-.17.05-.26.06.09-.02.18-.04.26-.06Zm7.48-.01c.06.02.12.04.18.05-.06-.01-.12-.03-.18-.05Zm.32.08c.1.01.19.03.29.03-.1,0-.2-.01-.29-.03Zm1.5.03h-.99v-1.97c0-.37.3-.68.68-.68h.62c.37,0,.68.3.68.68v1.97h-.98Zm1.18,0c.11,0,.21,0,.31-.02-.1.01-.19.02-.3.02h-.02Zm2.02-2.01c0,1.01-.74,1.84-1.71,1.98.71-.11,1.3-.6,1.56-1.25l.11-.43c0-.06.02-.13.02-.2-.04-.5-.35-2.73-3.19-2.73-2.56,0-3.07,2.03-3.17,2.85,0-.07-.01-.14-.01-.22v-2.63c0-1.11.9-2.01,2.01-2.01h2.37c1.11,0,2.01.9,2.01,2.01v2.63Zm.75-5.66c-.51,0-.93-.42-.93-.93h1.86c0,.51-.42.93-.93.93Zm-.93-3.04c0-3.67-1.08-5.54-1.42-6.05-.03-.04.02-.1.07-.08,3.17,1.17,3.28,6.13,3.28,6.13h-1.93Z" style="fill:#fff; stroke-width:0px;"/></g></svg>